<?xml version="1.0" encoding="UTF-8"?>
<svg id="Layer_1" xmlns="http://www.w3.org/2000/svg" version="1.1" xmlns:xlink="http://www.w3.org/1999/xlink" viewBox="0 0 207.2 169">
  <!-- Generator: Adobe Illustrator 29.2.1, SVG Export Plug-In . SVG Version: 2.1.0 Build 116)  -->
  <defs>
    <style>
      .st0 {
        opacity: .4;
      }

      .st0, .st1 {
        fill: none;
        stroke: #0f6cbd;
        stroke-miterlimit: 10;
        stroke-width: 29px;
      }

      .st0, .st2 {
        isolation: isolate;
      }

      .st1 {
        stroke-linecap: round;
      }

      .st3 {
        fill: #1a73e8;
        fill-rule: evenodd;
      }
    </style>
  </defs>
  <rect class="st0" x="-1009.1" y="-170.2" width="153.9" height="364"/>
  <line class="st1" x1="-1022" y1="-43.7" x2="-824.5" y2="-43.7"/>
  <image class="st2" width="587" height="775" transform="translate(-7874.9 -7984.7)" xlink:href="favicon-2.png"/>
  <image class="st2" width="587" height="775" transform="translate(-7874.9 -7984.7)" xlink:href="favicon-3.png"/>
  <path class="st3" d="M163.7,167.6c-25.1-58.8-33.2-71.5-49.7-107.3-3-5.6-5.9-10.6-8.9-15,11.7-15.2,23.7-21.1,39.1-21.1h61.9V1.5h-95.5c-22.3,0-36.4,12.2-51.3,40.5l-23.5,50.7L1.1,167.6h39.7c16.6-16.6,34.2-32.3,53.2-45.1-2.9-6-5.8-12-8.9-17.9-8.1,6.3-15.7,13.3-22.8,20.9l20.2-39.8c15.1,25.1,27.9,56.7,40.8,81.9h40.5ZM130.5,78.9c17.3-6.4,36-9.8,55.8-9.2v21.3c-16.3.3-31.6,3.2-46,8.1-1.8-3.7-3.6-7.5-5.4-11.2-1.5-3-2.9-6-4.4-9h0Z"/>
</svg>